HIERARCHY
ROOT Hips
{
	OFFSET 0.000000 103.266502 0.000000
	CHANNELS 6 Xposition Yposition Zposition Xrotation Yrotation Zrotation 
	JOINT Spine
	{
		OFFSET -0.002400 12.777504 0.315300
		CHANNELS 3 Xrotation Yrotation Zrotation
		JOINT Spine1
		{
			OFFSET -0.002067 5.816869 0.032633
			CHANNELS 3 Xrotation Yrotation Zrotation
			JOINT Spine1_split
			{
				OFFSET -0.002067 5.816869 0.032633
				CHANNELS 3 Xrotation Yrotation Zrotation
				JOINT Spine2
				{
					OFFSET -0.002067 5.816869 0.032633
					CHANNELS 3 Xrotation Yrotation Zrotation
					JOINT Neck
					{
						OFFSET -0.003700 21.199493 -0.826900
						CHANNELS 3 Xrotation Yrotation Zrotation
						JOINT Head
						{
							OFFSET 0.000000 20.442200 4.834800
							CHANNELS 3 Xrotation Yrotation Zrotation
							JOINT HeadTop_End
							{
								OFFSET 0.000000 34.668396 4.968400
								CHANNELS 3 Xrotation Yrotation Zrotation
								End Site
								{
									OFFSET 0.000000 0.000000 0.000000
								}
							}
						}
					}
					JOINT LeftShoulder
					{
						OFFSET 3.288150 8.794197 -1.372250
						CHANNELS 3 Xrotation Yrotation Zrotation
						JOINT LeftShoulder_split
						{
							OFFSET 3.288150 8.794197 -1.372250
							CHANNELS 3 Xrotation Yrotation Zrotation
							JOINT LeftArm
							{
								OFFSET 11.953299 -2.279007 -0.146200
								CHANNELS 3 Xrotation Yrotation Zrotation
								JOINT LeftForeArm
								{
									OFFSET 18.448900 0.000000 0.000000
									CHANNELS 3 Xrotation Yrotation Zrotation
									JOINT LeftHand
									{
										OFFSET 29.527798 0.000000 0.000000
										CHANNELS 3 Xrotation Yrotation Zrotation
										JOINT LeftHandThumb1
										{
											OFFSET 10.739754 -2.369614 9.225399
											CHANNELS 3 Xrotation Yrotation Zrotation
											JOINT LeftHandThumb2
											{
												OFFSET 4.926170 -2.844131 2.844125
												CHANNELS 3 Xrotation Yrotation Zrotation
												JOINT LeftHandThumb3
												{
													OFFSET 4.614891 -2.664413 2.664409
													CHANNELS 3 Xrotation Yrotation Zrotation
													JOINT LeftHandThumb4
													{
														OFFSET 4.432465 -2.559082 2.559083
														CHANNELS 3 Xrotation Yrotation Zrotation
														End Site
														{
															OFFSET 0.000000 0.000000 0.000000
														}
													}
												}
											}
										}
										JOINT LeftHandIndex1
										{
											OFFSET 26.467674 0.187653 6.405298
											CHANNELS 3 Xrotation Yrotation Zrotation
											JOINT LeftHandIndex2
											{
												OFFSET 8.792900 0.000000 0.000000
												CHANNELS 3 Xrotation Yrotation Zrotation
												JOINT LeftHandIndex3
												{
													OFFSET 10.075203 0.000000 0.000000
													CHANNELS 3 Xrotation Yrotation Zrotation
													End Site
													{
														OFFSET 0.000000 0.000000 0.000000
													}
												}
											}
										}
										JOINT LeftHandMiddle1
										{
											OFFSET 25.764404 0.000000 0.000000
											CHANNELS 3 Xrotation Yrotation Zrotation
											JOINT LeftHandMiddle2
											{
												OFFSET 9.393974 0.000000 0.000000
												CHANNELS 3 Xrotation Yrotation Zrotation
												JOINT LeftHandMiddle3
												{
													OFFSET 10.771950 0.000000 0.000000
													CHANNELS 3 Xrotation Yrotation Zrotation
													End Site
													{
														OFFSET 0.000000 0.000000 0.000000
													}
												}
											}
										}
										JOINT LeftHandRing1
										{
											OFFSET 24.660927 0.144547 -6.225808
											CHANNELS 3 Xrotation Yrotation Zrotation
											JOINT LeftHandRing2
											{
												OFFSET 9.393799 0.000000 0.000000
												CHANNELS 3 Xrotation Yrotation Zrotation
												JOINT LeftHandRing3
												{
													OFFSET 9.928497 0.000000 0.000000
													CHANNELS 3 Xrotation Yrotation Zrotation
													End Site
													{
														OFFSET 0.000000 0.000000 0.000000
													}
												}
											}
										}
										JOINT LeftHandPinky1
										{
											OFFSET 23.655350 0.125290 -12.815412
											CHANNELS 3 Xrotation Yrotation Zrotation
											JOINT LeftHandPinky2
											{
												OFFSET 8.425102 0.000000 0.000000
												CHANNELS 3 Xrotation Yrotation Zrotation
												JOINT LeftHandPinky3
												{
													OFFSET 8.147003 0.000000 0.000000
													CHANNELS 3 Xrotation Yrotation Zrotation
													End Site
													{
														OFFSET 0.000000 0.000000 0.000000
													}
												}
											}
										}
									}
								}
							}
						}
					}
					JOINT RightShoulder
					{
						OFFSET -3.249400 8.794197 -1.372250
						CHANNELS 3 Xrotation Yrotation Zrotation
						JOINT RightShoulder_split
						{
							OFFSET -3.249400 8.794197 -1.372250
							CHANNELS 3 Xrotation Yrotation Zrotation
							JOINT RightArm
							{
								OFFSET -11.953299 -2.279007 -0.146200
								CHANNELS 3 Xrotation Yrotation Zrotation
								JOINT RightForeArm
								{
									OFFSET -18.448900 0.000000 0.000000
									CHANNELS 3 Xrotation Yrotation Zrotation
									JOINT RightHand
									{
										OFFSET -29.527802 0.000000 0.000000
										CHANNELS 3 Xrotation Yrotation Zrotation
										JOINT RightHandThumb1
										{
											OFFSET -10.739754 -2.369614 9.225399
											CHANNELS 3 Xrotation Yrotation Zrotation
											JOINT RightHandThumb2
											{
												OFFSET -4.926170 -2.844131 2.844125
												CHANNELS 3 Xrotation Yrotation Zrotation
												JOINT RightHandThumb3
												{
													OFFSET -4.614891 -2.664413 2.664409
													CHANNELS 3 Xrotation Yrotation Zrotation
													JOINT RightHandThumb4
													{
														OFFSET -4.432465 -2.559082 2.559083
														CHANNELS 3 Xrotation Yrotation Zrotation
														End Site
														{
															OFFSET 0.000000 0.000000 0.000000
														}
													}
												}
											}
										}
										JOINT RightHandIndex1
										{
											OFFSET -26.467674 0.187653 6.405298
											CHANNELS 3 Xrotation Yrotation Zrotation
											JOINT RightHandIndex2
											{
												OFFSET -8.792900 0.000000 0.000000
												CHANNELS 3 Xrotation Yrotation Zrotation
												JOINT RightHandIndex3
												{
													OFFSET -10.075203 0.000000 0.000000
													CHANNELS 3 Xrotation Yrotation Zrotation
													End Site
													{
														OFFSET 0.000000 0.000000 0.000000
													}
												}
											}
										}
										JOINT RightHandMiddle1
										{
											OFFSET -25.764404 0.000000 0.000000
											CHANNELS 3 Xrotation Yrotation Zrotation
											JOINT RightHandMiddle2
											{
												OFFSET -9.393974 0.000000 0.000000
												CHANNELS 3 Xrotation Yrotation Zrotation
												JOINT RightHandMiddle3
												{
													OFFSET -10.771950 0.000000 0.000000
													CHANNELS 3 Xrotation Yrotation Zrotation
													End Site
													{
														OFFSET 0.000000 0.000000 0.000000
													}
												}
											}
										}
										JOINT RightHandRing1
										{
											OFFSET -24.660927 0.144547 -6.225808
											CHANNELS 3 Xrotation Yrotation Zrotation
											JOINT RightHandRing2
											{
												OFFSET -9.393799 0.000000 0.000000
												CHANNELS 3 Xrotation Yrotation Zrotation
												JOINT RightHandRing3
												{
													OFFSET -9.928497 0.000000 0.000000
													CHANNELS 3 Xrotation Yrotation Zrotation
													End Site
													{
														OFFSET 0.000000 0.000000 0.000000
													}
												}
											}
										}
										JOINT RightHandPinky1
										{
											OFFSET -23.655350 0.125290 -12.815412
											CHANNELS 3 Xrotation Yrotation Zrotation
											JOINT RightHandPinky2
											{
												OFFSET -8.425102 0.000000 0.000000
												CHANNELS 3 Xrotation Yrotation Zrotation
												JOINT RightHandPinky3
												{
													OFFSET -8.147003 0.000000 0.000000
													CHANNELS 3 Xrotation Yrotation Zrotation
													End Site
													{
														OFFSET 0.000000 0.000000 0.000000
													}
												}
											}
										}
									}
								}
							}
						}
					}
				}
			}
		}
	}
	JOINT LeftUpLeg
	{
		OFFSET 11.394100 -6.187798 -0.413800
		CHANNELS 3 Xrotation Yrotation Zrotation
		JOINT LeftLeg
		{
			OFFSET 0.430247 -32.302673 3.732800
			CHANNELS 3 Xrotation Yrotation Zrotation
			JOINT LeftFoot
			{
				OFFSET -0.430247 -48.264931 -6.423300
				CHANNELS 3 Xrotation Yrotation Zrotation
				JOINT LeftToeBase
				{
					OFFSET 4.230900 -16.068199 23.438400
					CHANNELS 3 Xrotation Yrotation Zrotation
					JOINT LeftToe_End
					{
						OFFSET 4.510700 0.695400 19.974600
						CHANNELS 3 Xrotation Yrotation Zrotation
						End Site
						{
							OFFSET 0.000000 0.000000 0.000000
						}
					}
				}
			}
		}
	}
	JOINT RightUpLeg
	{
		OFFSET -11.333700 -6.187798 -0.413800
		CHANNELS 3 Xrotation Yrotation Zrotation
		JOINT RightLeg
		{
			OFFSET -0.430392 -32.302628 3.733000
			CHANNELS 3 Xrotation Yrotation Zrotation
			JOINT RightFoot
			{
				OFFSET 0.430392 -48.264973 -6.423500
				CHANNELS 3 Xrotation Yrotation Zrotation
				JOINT RightToeBase
				{
					OFFSET -4.230900 -16.068199 23.438400
					CHANNELS 3 Xrotation Yrotation Zrotation
					JOINT RightToe_End
					{
						OFFSET -4.510700 0.695400 19.974600
						CHANNELS 3 Xrotation Yrotation Zrotation
						End Site
						{
							OFFSET 0.000000 0.000000 0.000000
						}
					}
				}
			}
		}
	}
}
MOTION
Frames: 5
Frame Time: 0.016667
2.636401 91.353424 -8.459688 4.980535 -63.977562 6.412693 6.022442 -0.213392 -10.130644 2.022907 1.037149 -3.225556 0.000000 0.000000 0.000000 1.954052 1.061980 -3.259244 -0.427854 1.561211 3.150431 -6.501606 52.691146 -2.930372 -0.000000 -0.000000 0.000000 8.323263 13.077825 -7.024603 0.000000 0.000000 0.000000 9.541091 6.100878 -50.685632 -17.718173 -52.472590 -11.271200 -68.344328 2.082870 12.151087 40.109900 -15.297206 -0.360573 5.639840 28.097954 11.338789 1.088517 40.896290 22.734049 0.000000 0.000002 0.000002 6.882206 2.840052 -61.140520 8.247967 7.640070 -89.897843 0.000000 0.000001 0.000000 -2.345575 4.688877 -62.655313 8.754105 9.897152 -87.051328 0.000000 -0.000001 -0.000001 -9.042520 10.045734 -60.766246 8.524054 9.508848 -66.892988 -0.000002 0.000000 0.000002 -17.946969 14.755036 -51.485881 8.868415 8.667034 -84.812023 -0.000001 -0.000002 -0.000002 -1.250376 0.958163 0.166083 0.000000 0.000000 0.000000 14.011431 15.962895 54.635902 -3.654939 37.198740 3.123716 -40.713870 8.548940 -33.022254 -1.061792 -5.152534 8.081558 1.452022 -24.614569 -6.362828 -3.138355 5.616682 2.809226 0.000001 0.000001 0.000001 0.188942 0.143013 1.399192 -0.095008 -0.785882 10.671228 -0.000001 0.000001 -0.000001 0.348244 -5.918441 2.583749 1.609634 -4.842105 28.629267 -0.000000 -0.000003 0.000001 0.965511 -11.985683 1.668193 1.794831 -3.771885 26.865470 -0.000000 -0.000000 -0.000001 2.078713 -19.147949 10.710189 3.052580 -1.679794 16.780177 -0.000001 0.000000 0.000002 -52.204352 7.490931 34.168346 60.083350 6.595946 2.099393 8.228469 2.595178 -12.862490 0.804117 0.074201 -3.366616 0.000000 0.000000 -0.000001 -38.807219 -16.028328 -32.448347 43.190134 5.580920 -0.462179 -9.395394 1.789246 14.983504 0.000274 -0.000171 0.000008 0.000000 0.000000 0.000000 
2.442261 90.931847 -8.183546 4.595997 -66.170183 6.103534 6.569785 0.216127 -10.308532 2.213359 1.252817 -3.503123 0.000000 0.000000 0.000000 2.134168 1.287665 -3.544560 -0.726367 1.472304 3.093044 -7.529521 54.155866 -2.182899 0.000000 0.000000 0.000000 7.748750 12.716437 -7.899213 0.000000 0.000000 0.000000 3.768027 9.179779 -48.813842 -14.713860 -50.244514 -8.593147 -62.145289 -0.745703 11.047855 40.109910 -15.297201 -0.360555 5.639835 28.097935 11.338793 1.088572 40.896280 22.734011 -0.000003 0.000000 0.000001 6.882184 2.840052 -61.140473 8.247981 7.640107 -89.897816 0.000001 -0.000001 0.000002 -2.345583 4.688886 -62.655238 8.754095 9.897169 -87.051246 0.000002 0.000001 -0.000001 -9.042503 10.045736 -60.766240 8.524032 9.508830 -66.892960 -0.000001 -0.000001 -0.000003 -17.946973 14.755025 -51.485901 8.868425 8.667048 -84.811989 -0.000000 -0.000002 -0.000006 -1.130648 1.067003 0.184876 0.000000 0.000000 0.000000 14.688259 15.673580 54.959998 -0.682694 33.923432 1.183352 -47.488809 7.229299 -35.346185 -1.746938 -5.633441 9.467132 1.769583 -24.313725 -7.223182 -3.576689 7.904290 3.616467 -0.000000 -0.000002 0.000002 0.055248 0.373350 0.873924 -0.045544 -0.390812 7.572029 0.000002 -0.000001 -0.000001 0.374760 -5.832921 1.407351 1.498662 -4.485170 26.058305 -0.000001 -0.000004 0.000002 1.026390 -11.929845 2.279485 1.646408 -3.560639 25.559941 -0.000001 0.000000 0.000001 2.327897 -19.238770 13.973350 3.124611 -1.790152 17.283092 -0.000000 0.000000 -0.000000 -49.399388 6.010251 32.858210 57.994720 4.652405 1.950541 3.753111 1.852755 -13.394849 1.978050 -0.000524 0.000000 -0.000001 -0.000001 0.000001 -38.972212 -14.231089 -31.546202 44.288982 5.886435 -0.671659 -9.682873 1.913050 15.078512 0.000255 -0.000123 0.000001 0.000000 0.000000 0.000000 
2.300909 90.539322 -7.759171 4.504271 -68.012005 6.120046 7.428644 0.385666 -10.251421 2.596586 1.518467 -3.801018 0.000000 0.000000 0.000000 2.492148 1.563046 -3.857250 -0.932582 1.253271 2.928707 -9.210472 55.518131 -1.362797 0.000001 -0.000000 0.000000 7.224909 11.907275 -8.568570 0.000000 0.000000 0.000000 -2.264329 11.705502 -47.207559 -12.391273 -47.836336 -6.593971 -56.577196 -1.497006 9.008529 40.109931 -15.297177 -0.360520 5.639821 28.097935 11.338795 1.088551 40.896263 22.734010 -0.000001 0.000001 0.000002 6.882219 2.840035 -61.140486 8.247949 7.640058 -89.897871 0.000000 -0.000000 -0.000002 -2.345567 4.688855 -62.655279 8.754086 9.897178 -87.051314 0.000000 -0.000003 -0.000002 -9.042530 10.045752 -60.766260 8.524089 9.508836 -66.892981 -0.000003 -0.000001 -0.000002 -17.946966 14.755037 -51.485901 8.868415 8.667048 -84.811975 -0.000000 -0.000000 -0.000005 -1.065460 1.265482 0.198262 0.000000 0.000000 0.000000 14.656631 14.472734 55.165997 -4.528755 30.845940 3.374023 -47.603980 6.503112 -36.543315 -2.346133 -6.100534 10.731425 2.076096 -24.043436 -8.030815 -4.045028 10.085876 4.402658 -0.000003 0.000002 -0.000000 -0.054793 0.532066 0.738700 0.019783 -0.087318 5.078585 0.000001 -0.000000 -0.000003 0.381868 -5.810076 1.088495 1.432674 -4.204258 24.052146 0.000002 -0.000003 0.000001 1.176580 -11.785461 3.841129 1.607185 -3.502550 25.206255 0.000000 0.000001 -0.000001 2.615592 -19.318239 17.991239 3.315371 -2.067393 18.569816 -0.000000 -0.000000 0.000000 -47.274243 5.722954 32.310408 55.564224 3.150214 1.829393 0.162744 -0.015191 -12.758077 2.145207 -0.000518 -0.000005 -0.000000 -0.000003 -0.000000 -39.108919 -12.418682 -30.786364 45.151672 5.974530 -0.895759 -9.880533 1.928873 15.410818 0.000333 -0.000191 -0.000003 -0.000000 0.000000 0.000000 
2.266308 90.142639 -7.196187 4.589828 -69.064066 6.274689 8.346130 0.019612 -10.090033 3.018321 1.678068 -4.067149 0.000000 0.000000 0.000000 2.881012 1.725164 -4.151145 -0.981796 1.071887 2.832519 -11.175550 56.782313 -0.649292 0.000002 0.000000 0.000000 6.677908 10.753165 -8.549240 0.000000 0.000000 0.000000 -8.021127 14.587821 -46.182686 -13.712493 -45.464642 -7.520424 -48.869959 -1.339812 7.345880 40.109910 -15.297225 -0.360567 5.639827 28.097945 11.338842 1.088556 40.896277 22.734001 0.000003 0.000000 0.000001 6.882198 2.840011 -61.140500 8.247972 7.640108 -89.897878 0.000002 -0.000004 -0.000004 -2.345550 4.688826 -62.655272 8.754075 9.897133 -87.051314 0.000001 -0.000003 -0.000002 -9.042521 10.045699 -60.766219 8.524068 9.508859 -66.892967 0.000002 -0.000000 -0.000002 -17.946978 14.755019 -51.485867 8.868435 8.667070 -84.811968 0.000001 -0.000001 -0.000004 -0.941226 1.430448 0.218051 0.000000 0.000000 0.000000 14.222955 13.758785 55.030093 -5.122352 28.405594 3.551394 -49.977771 5.601600 -36.818241 -2.731568 -6.426718 11.574428 2.364087 -23.806179 -8.771049 -4.529265 12.124778 5.155763 0.000001 -0.000001 -0.000002 -0.124217 0.615513 0.793048 0.070676 0.090712 3.555009 0.000000 -0.000002 -0.000001 0.372799 -5.839091 1.492321 1.402481 -4.036314 22.855970 0.000001 -0.000001 0.000002 1.383441 -11.568633 6.136996 1.656963 -3.576007 25.654151 -0.000000 -0.000000 0.000002 2.906235 -19.368589 22.456800 3.612586 -2.462277 20.466638 -0.000000 -0.000000 0.000004 -45.824549 5.843334 31.702067 53.327105 -0.143761 1.563593 -3.619740 -1.297865 -11.675894 2.838639 -0.000540 -0.000001 0.000000 0.000000 0.000001 -39.117197 -10.791376 -30.270862 45.829097 5.701347 -1.144604 -10.050757 1.737975 16.058232 -0.001685 -0.000164 -0.000019 -0.000000 -0.000000 -0.000000 
2.297421 89.746193 -6.590319 4.741411 -69.925113 6.476878 9.330732 -0.145834 -9.915206 3.397633 1.758920 -4.272320 0.000000 0.000000 0.000000 3.242730 1.798961 -4.382677 -0.898293 1.097332 2.897777 -13.021785 57.653975 -0.236438 0.000001 0.000000 0.000000 6.161459 9.525323 -8.649470 0.000000 0.000000 0.000000 -13.098017 17.120286 -45.158776 -10.163030 -44.135719 -4.830596 -45.143377 -1.467079 5.878644 40.109917 -15.297214 -0.360571 5.639809 28.097930 11.338794 1.088563 40.896297 22.734003 0.000003 0.000000 0.000002 6.882190 2.840049 -61.140479 8.247971 7.640127 -89.897837 -0.000002 -0.000000 -0.000001 -2.345554 4.688901 -62.655306 8.754078 9.897149 -87.051273 -0.000000 -0.000004 -0.000002 -9.042504 10.045755 -60.766212 8.524063 9.508813 -66.892988 -0.000000 -0.000001 0.000002 -17.946961 14.755031 -51.485904 8.868400 8.667017 -84.812003 0.000000 0.000000 -0.000003 -0.733837 1.485824 0.243879 0.000000 0.000000 0.000000 13.715258 13.538927 54.727919 -5.815016 26.602187 3.807471 -51.655276 4.845649 -36.496265 -2.824982 -6.508970 11.782577 2.558998 -23.654251 -9.262977 -5.012427 13.984923 5.861535 -0.000001 0.000001 -0.000002 -0.141402 0.636171 0.806475 0.083851 0.134278 3.178277 -0.000001 -0.000001 -0.000002 0.350488 -5.911172 2.483819 1.395577 -3.994652 22.560265 -0.000001 -0.000002 0.000005 1.614270 -11.296928 8.951120 1.782020 -3.754166 26.754406 0.000000 0.000000 -0.000000 3.169391 -19.383722 27.064042 4.003453 -2.924272 22.800058 -0.000001 0.000000 0.000000 -44.715855 6.077253 30.925772 51.197490 -3.772059 1.275140 -4.572525 -2.525305 -9.629726 3.881871 -0.000523 -0.000001 -0.000000 -0.000001 0.000002 -39.241950 -9.419704 -29.971058 46.410572 5.510931 -1.384015 -10.141408 1.613985 16.716654 -0.001692 -0.000164 -0.000006 -0.000000 -0.000000 0.000000 
